<svg width="306" height="306" viewBox="0 0 306 306" fill="none" xmlns="http://www.w3.org/2000/svg">
<path fill-rule="evenodd" clip-rule="evenodd" d="M305.543 152.929C305.543 237.212 237.218 305.538 152.934 305.538C68.6509 305.538 0.324249 237.212 0.324249 152.929C0.324249 68.6465 68.6509 0.319802 152.934 0.319802C237.218 0.319802 305.543 68.6465 305.543 152.929Z" fill="#BF1E2D"/>
<path fill-rule="evenodd" clip-rule="evenodd" d="M37.1138 198.383C36.9258 194.66 36.7392 190.943 36.5512 187.22C108.837 170.575 179.571 221.972 248.847 190.508C222.906 179.932 191.219 173.344 158.351 167.091C126.999 161.13 88.4285 166.122 69.7965 137.979C73.5392 115.975 103.059 108.551 126.018 101.575C147.663 94.9976 183.475 77.0096 193.261 106.578C150.675 107.536 111.263 112.075 89.8418 136.968C116.615 151.299 153.574 151.308 186.883 157.263C218.938 162.988 255.51 166.774 269.317 197.871C254.175 217.095 223.646 215.868 194.29 215.64C141.063 215.226 78.8925 208.395 37.1138 198.383Z" fill="white"/>
</svg>
